<mxfile host="app.diagrams.net" agent="Mozilla/5.0 (Windows NT 10.0; Win64; x64) AppleWebKit/537.36 (KHTML, like Gecko) Chrome/127.0.0.0 Safari/537.36" version="24.7.6">
  <diagram name="Página-1" id="IcJNsyV-YzkvH7R0qJC5">
    <mxGraphModel dx="1434" dy="780" grid="1" gridSize="10" guides="1" tooltips="1" connect="1" arrows="1" fold="1" page="1" pageScale="1" pageWidth="827" pageHeight="1169" math="0" shadow="0">
      <root>
        <mxCell id="0" />
        <mxCell id="1" parent="0" />
        <mxCell id="Gq4f9KvhyC5_NsDD3bGl-1" value="PRODUTOS" style="rounded=0;whiteSpace=wrap;html=1;" vertex="1" parent="1">
          <mxGeometry x="170" y="60" width="180" height="100" as="geometry" />
        </mxCell>
        <mxCell id="Gq4f9KvhyC5_NsDD3bGl-12" style="edgeStyle=orthogonalEdgeStyle;rounded=0;orthogonalLoop=1;jettySize=auto;html=1;" edge="1" parent="1" source="Gq4f9KvhyC5_NsDD3bGl-4">
          <mxGeometry relative="1" as="geometry">
            <mxPoint x="360" y="70" as="targetPoint" />
          </mxGeometry>
        </mxCell>
        <mxCell id="Gq4f9KvhyC5_NsDD3bGl-4" value="descrição" style="ellipse;whiteSpace=wrap;html=1;" vertex="1" parent="1">
          <mxGeometry x="510" y="40" width="100" height="50" as="geometry" />
        </mxCell>
        <mxCell id="Gq4f9KvhyC5_NsDD3bGl-5" value="preço" style="ellipse;whiteSpace=wrap;html=1;" vertex="1" parent="1">
          <mxGeometry x="510" y="100" width="100" height="50" as="geometry" />
        </mxCell>
        <mxCell id="Gq4f9KvhyC5_NsDD3bGl-13" style="edgeStyle=orthogonalEdgeStyle;rounded=0;orthogonalLoop=1;jettySize=auto;html=1;entryX=1;entryY=0.75;entryDx=0;entryDy=0;" edge="1" parent="1" source="Gq4f9KvhyC5_NsDD3bGl-6" target="Gq4f9KvhyC5_NsDD3bGl-1">
          <mxGeometry relative="1" as="geometry" />
        </mxCell>
        <mxCell id="Gq4f9KvhyC5_NsDD3bGl-6" value="quantidade" style="ellipse;whiteSpace=wrap;html=1;" vertex="1" parent="1">
          <mxGeometry x="510" y="160" width="100" height="50" as="geometry" />
        </mxCell>
        <mxCell id="Gq4f9KvhyC5_NsDD3bGl-14" style="edgeStyle=orthogonalEdgeStyle;rounded=0;orthogonalLoop=1;jettySize=auto;html=1;entryX=0.75;entryY=1;entryDx=0;entryDy=0;" edge="1" parent="1" source="Gq4f9KvhyC5_NsDD3bGl-7" target="Gq4f9KvhyC5_NsDD3bGl-1">
          <mxGeometry relative="1" as="geometry" />
        </mxCell>
        <mxCell id="Gq4f9KvhyC5_NsDD3bGl-7" value="total" style="ellipse;whiteSpace=wrap;html=1;" vertex="1" parent="1">
          <mxGeometry x="510" y="210" width="100" height="50" as="geometry" />
        </mxCell>
        <mxCell id="Gq4f9KvhyC5_NsDD3bGl-11" style="edgeStyle=orthogonalEdgeStyle;rounded=0;orthogonalLoop=1;jettySize=auto;html=1;entryX=1;entryY=0.64;entryDx=0;entryDy=0;entryPerimeter=0;" edge="1" parent="1" source="Gq4f9KvhyC5_NsDD3bGl-5" target="Gq4f9KvhyC5_NsDD3bGl-1">
          <mxGeometry relative="1" as="geometry" />
        </mxCell>
        <mxCell id="Gq4f9KvhyC5_NsDD3bGl-15" value="FUNCIONARIO" style="rounded=0;whiteSpace=wrap;html=1;" vertex="1" parent="1">
          <mxGeometry x="190" y="350" width="210" height="120" as="geometry" />
        </mxCell>
        <mxCell id="Gq4f9KvhyC5_NsDD3bGl-16" value="salario" style="ellipse;whiteSpace=wrap;html=1;" vertex="1" parent="1">
          <mxGeometry x="510" y="300" width="100" height="50" as="geometry" />
        </mxCell>
        <mxCell id="Gq4f9KvhyC5_NsDD3bGl-22" style="edgeStyle=orthogonalEdgeStyle;rounded=0;orthogonalLoop=1;jettySize=auto;html=1;" edge="1" parent="1" source="Gq4f9KvhyC5_NsDD3bGl-17">
          <mxGeometry relative="1" as="geometry">
            <mxPoint x="410" y="385" as="targetPoint" />
          </mxGeometry>
        </mxCell>
        <mxCell id="Gq4f9KvhyC5_NsDD3bGl-17" value="carga horaria" style="ellipse;whiteSpace=wrap;html=1;" vertex="1" parent="1">
          <mxGeometry x="510" y="360" width="100" height="50" as="geometry" />
        </mxCell>
        <mxCell id="Gq4f9KvhyC5_NsDD3bGl-23" style="edgeStyle=orthogonalEdgeStyle;rounded=0;orthogonalLoop=1;jettySize=auto;html=1;" edge="1" parent="1" source="Gq4f9KvhyC5_NsDD3bGl-18">
          <mxGeometry relative="1" as="geometry">
            <mxPoint x="410" y="445" as="targetPoint" />
          </mxGeometry>
        </mxCell>
        <mxCell id="Gq4f9KvhyC5_NsDD3bGl-18" value="formação" style="ellipse;whiteSpace=wrap;html=1;" vertex="1" parent="1">
          <mxGeometry x="510" y="420" width="100" height="50" as="geometry" />
        </mxCell>
        <mxCell id="Gq4f9KvhyC5_NsDD3bGl-24" style="edgeStyle=orthogonalEdgeStyle;rounded=0;orthogonalLoop=1;jettySize=auto;html=1;" edge="1" parent="1" source="Gq4f9KvhyC5_NsDD3bGl-19">
          <mxGeometry relative="1" as="geometry">
            <mxPoint x="410" y="480" as="targetPoint" />
          </mxGeometry>
        </mxCell>
        <mxCell id="Gq4f9KvhyC5_NsDD3bGl-19" value="cargo" style="ellipse;whiteSpace=wrap;html=1;" vertex="1" parent="1">
          <mxGeometry x="510" y="470" width="100" height="50" as="geometry" />
        </mxCell>
        <mxCell id="Gq4f9KvhyC5_NsDD3bGl-20" style="edgeStyle=orthogonalEdgeStyle;rounded=0;orthogonalLoop=1;jettySize=auto;html=1;entryX=1.024;entryY=0.058;entryDx=0;entryDy=0;entryPerimeter=0;" edge="1" parent="1" source="Gq4f9KvhyC5_NsDD3bGl-16" target="Gq4f9KvhyC5_NsDD3bGl-15">
          <mxGeometry relative="1" as="geometry" />
        </mxCell>
        <mxCell id="Gq4f9KvhyC5_NsDD3bGl-25" value="VENDAS" style="rounded=0;whiteSpace=wrap;html=1;" vertex="1" parent="1">
          <mxGeometry x="200" y="630" width="200" height="120" as="geometry" />
        </mxCell>
        <mxCell id="Gq4f9KvhyC5_NsDD3bGl-30" value="Estoque" style="ellipse;whiteSpace=wrap;html=1;" vertex="1" parent="1">
          <mxGeometry x="510" y="580" width="100" height="50" as="geometry" />
        </mxCell>
        <mxCell id="Gq4f9KvhyC5_NsDD3bGl-35" style="edgeStyle=orthogonalEdgeStyle;rounded=0;orthogonalLoop=1;jettySize=auto;html=1;entryX=1;entryY=0.25;entryDx=0;entryDy=0;" edge="1" parent="1" source="Gq4f9KvhyC5_NsDD3bGl-31" target="Gq4f9KvhyC5_NsDD3bGl-25">
          <mxGeometry relative="1" as="geometry" />
        </mxCell>
        <mxCell id="Gq4f9KvhyC5_NsDD3bGl-31" value="valor" style="ellipse;whiteSpace=wrap;html=1;" vertex="1" parent="1">
          <mxGeometry x="510" y="640" width="100" height="50" as="geometry" />
        </mxCell>
        <mxCell id="Gq4f9KvhyC5_NsDD3bGl-36" style="edgeStyle=orthogonalEdgeStyle;rounded=0;orthogonalLoop=1;jettySize=auto;html=1;entryX=1;entryY=0.75;entryDx=0;entryDy=0;" edge="1" parent="1" source="Gq4f9KvhyC5_NsDD3bGl-32" target="Gq4f9KvhyC5_NsDD3bGl-25">
          <mxGeometry relative="1" as="geometry" />
        </mxCell>
        <mxCell id="Gq4f9KvhyC5_NsDD3bGl-32" value="lucro" style="ellipse;whiteSpace=wrap;html=1;" vertex="1" parent="1">
          <mxGeometry x="510" y="700" width="100" height="50" as="geometry" />
        </mxCell>
        <mxCell id="Gq4f9KvhyC5_NsDD3bGl-37" style="edgeStyle=orthogonalEdgeStyle;rounded=0;orthogonalLoop=1;jettySize=auto;html=1;entryX=1;entryY=1;entryDx=0;entryDy=0;" edge="1" parent="1" source="Gq4f9KvhyC5_NsDD3bGl-33" target="Gq4f9KvhyC5_NsDD3bGl-25">
          <mxGeometry relative="1" as="geometry" />
        </mxCell>
        <mxCell id="Gq4f9KvhyC5_NsDD3bGl-33" value="prejuízo" style="ellipse;whiteSpace=wrap;html=1;" vertex="1" parent="1">
          <mxGeometry x="510" y="750" width="100" height="50" as="geometry" />
        </mxCell>
        <mxCell id="Gq4f9KvhyC5_NsDD3bGl-34" style="edgeStyle=orthogonalEdgeStyle;rounded=0;orthogonalLoop=1;jettySize=auto;html=1;entryX=1.005;entryY=0.15;entryDx=0;entryDy=0;entryPerimeter=0;" edge="1" parent="1" source="Gq4f9KvhyC5_NsDD3bGl-30" target="Gq4f9KvhyC5_NsDD3bGl-25">
          <mxGeometry relative="1" as="geometry" />
        </mxCell>
      </root>
    </mxGraphModel>
  </diagram>
</mxfile>
